<svg width="73" height="72" viewBox="0 0 73 72" fill="none" xmlns="http://www.w3.org/2000/svg">
<g filter="url(#filter0_d_49789_3159)">
<rect x="4.23682" width="64" height="64" rx="32" fill="white" shape-rendering="crispEdges"/>
<g clip-path="url(#clip0_49789_3159)">
<mask id="mask0_49789_3159" style="mask-type:luminance" maskUnits="userSpaceOnUse" x="13" y="9" width="47" height="46">
<path d="M36.2368 55C48.9394 55 59.2368 44.7025 59.2368 32C59.2368 19.2975 48.9394 9 36.2368 9C23.5343 9 13.2368 19.2975 13.2368 32C13.2368 44.7025 23.5343 55 36.2368 55Z" fill="white"/>
</mask>
<g mask="url(#mask0_49789_3159)">
<path d="M23.1196 102.078C50.4103 102.078 72.5337 79.9547 72.5337 52.6641C72.5337 25.3734 50.4103 3.25 23.1196 3.25C-4.17101 3.25 -26.2944 25.3734 -26.2944 52.6641C-26.2944 79.9547 -4.17101 102.078 23.1196 102.078Z" fill="url(#paint0_radial_49789_3159)"/>
</g>
<path d="M42.7056 27.3281C43.698 27.3281 44.5024 26.5236 44.5024 25.5312C44.5024 24.5389 43.698 23.7344 42.7056 23.7344C41.7132 23.7344 40.9087 24.5389 40.9087 25.5312C40.9087 26.5236 41.7132 27.3281 42.7056 27.3281Z" fill="white"/>
<path d="M36.2368 26.25C35.0996 26.25 33.9879 26.5872 33.0423 27.2191C32.0967 27.8509 31.3597 28.7489 30.9245 29.7996C30.4893 30.8502 30.3754 32.0064 30.5973 33.1218C30.8192 34.2372 31.3668 35.2617 32.171 36.0659C32.9751 36.87 33.9997 37.4177 35.1151 37.6395C36.2304 37.8614 37.3866 37.7475 38.4373 37.3123C39.4879 36.8771 40.386 36.1401 41.0178 35.1945C41.6496 34.2489 41.9868 33.1372 41.9868 32C41.9868 30.475 41.381 29.0125 40.3027 27.9341C39.2243 26.8558 37.7618 26.25 36.2368 26.25ZM36.2368 34.875C35.6682 34.875 35.1123 34.7064 34.6396 34.3905C34.1668 34.0746 33.7983 33.6256 33.5807 33.1002C33.3631 32.5749 33.3061 31.9968 33.4171 31.4391C33.528 30.8814 33.8018 30.3691 34.2039 29.9671C34.606 29.565 35.1182 29.2912 35.6759 29.1802C36.2336 29.0693 36.8117 29.1262 37.337 29.3438C37.8624 29.5614 38.3114 29.9299 38.6273 30.4027C38.9432 30.8755 39.1118 31.4314 39.1118 32C39.1118 32.7625 38.8089 33.4938 38.2698 34.0329C37.7306 34.5721 36.9993 34.875 36.2368 34.875Z" fill="white"/>
<path d="M43.4243 20.5H29.0493C26.6676 20.5 24.7368 22.4308 24.7368 24.8125V39.1875C24.7368 41.5692 26.6676 43.5 29.0493 43.5H43.4243C45.806 43.5 47.7368 41.5692 47.7368 39.1875V24.8125C47.7368 22.4308 45.806 20.5 43.4243 20.5Z" stroke="white" stroke-width="3" stroke-miterlimit="10"/>
</g>
</g>
<defs>
<filter id="filter0_d_49789_3159" x="0.236816" y="0" width="72" height="72" filterUnits="userSpaceOnUse" color-interpolation-filters="sRGB">
<feFlood flood-opacity="0" result="BackgroundImageFix"/>
<feColorMatrix in="SourceAlpha" type="matrix" values="0 0 0 0 0 0 0 0 0 0 0 0 0 0 0 0 0 0 127 0" result="hardAlpha"/>
<feOffset dy="4"/>
<feGaussianBlur stdDeviation="2"/>
<feComposite in2="hardAlpha" operator="out"/>
<feColorMatrix type="matrix" values="0 0 0 0 0 0 0 0 0 0 0 0 0 0 0 0 0 0 0.2 0"/>
<feBlend mode="normal" in2="BackgroundImageFix" result="effect1_dropShadow_49789_3159"/>
<feBlend mode="normal" in="SourceGraphic" in2="effect1_dropShadow_49789_3159" result="shape"/>
</filter>
<radialGradient id="paint0_radial_49789_3159" cx="0" cy="0" r="1" gradientUnits="userSpaceOnUse" gradientTransform="translate(23.1196 52.6641) scale(49.4141)">
<stop stop-color="#FFD676"/>
<stop offset="0.25" stop-color="#F2A454"/>
<stop offset="0.38" stop-color="#F05C3C"/>
<stop offset="0.7" stop-color="#C22F86"/>
<stop offset="0.96" stop-color="#6666AD"/>
<stop offset="0.99" stop-color="#5C6CB2"/>
</radialGradient>
<clipPath id="clip0_49789_3159">
<rect width="46" height="46" fill="white" transform="translate(13.2368 9)"/>
</clipPath>
</defs>
</svg>
