<svg width="72" height="72" viewBox="0 0 72 72" fill="none" xmlns="http://www.w3.org/2000/svg">
<g filter="url(#filter0_d_49789_3156)">
<rect x="4.23682" y="0.5" width="64" height="64" rx="32" fill="white" shape-rendering="crispEdges"/>
<path d="M38.6749 29.5267H38.7099V29.4706L38.6749 29.5267ZM38.6749 29.5267H38.7099V29.4706L38.6749 29.5267ZM38.6749 29.5267H38.7099V29.4706L38.6749 29.5267ZM38.6749 29.5267H38.7099V29.4706L38.6749 29.5267ZM38.6749 29.5267H38.7099V29.4706L38.6749 29.5267ZM38.6749 29.5267H38.7099V29.4706L38.6749 29.5267ZM38.6749 29.5267H38.7099V29.4706L38.6749 29.5267ZM38.6749 29.5267H38.7099V29.4706L38.6749 29.5267ZM38.6749 29.5267H38.7099V29.4706L38.6749 29.5267ZM38.6749 29.5267H38.7099V29.4706L38.6749 29.5267ZM38.6749 29.5267H38.7099V29.4706L38.6749 29.5267ZM38.6749 29.5267H38.7099V29.4706L38.6749 29.5267ZM38.6749 29.5267H38.7099V29.4706L38.6749 29.5267ZM38.6749 29.5267H38.7099V29.4706L38.6749 29.5267ZM38.6749 29.5267H38.7099V29.4706L38.6749 29.5267ZM38.6749 29.5267H38.7099V29.4706L38.6749 29.5267ZM36.4 8.92273C31.8836 8.92273 27.4687 10.2888 23.7135 12.8481C19.9583 15.4074 17.0315 19.0451 15.3032 23.3011C13.5748 27.5571 13.1226 32.2403 14.0037 36.7584C14.8848 41.2766 17.0596 45.4267 20.2532 48.6842C23.4467 51.9416 27.5155 54.1599 31.9451 55.0586C36.3746 55.9573 40.966 55.496 45.1385 53.7332C49.3111 51.9703 52.8774 48.9849 55.3866 45.1546C57.8957 41.3243 59.2349 36.8211 59.2349 32.2144C59.2283 26.0392 56.8204 20.1187 52.5394 15.7522C48.2585 11.3856 42.4541 8.92948 36.4 8.92273ZM30.69 42.7C30.6886 42.8033 30.6475 42.9019 30.5754 42.9744C30.5034 43.047 30.4062 43.0876 30.305 43.0876H25.905C25.8042 43.0876 25.7075 43.0468 25.6362 42.9741C25.565 42.9014 25.525 42.8028 25.525 42.7V27.6193C25.5243 27.568 25.5336 27.517 25.5524 27.4694C25.5712 27.4218 25.5991 27.3785 25.6345 27.342C25.6698 27.3054 25.7119 27.2764 25.7584 27.2566C25.8048 27.2368 25.8546 27.2266 25.905 27.2266H30.305C30.3555 27.2266 30.4056 27.2368 30.4523 27.2565C30.499 27.2763 30.5414 27.3052 30.5772 27.3416C30.6129 27.3781 30.6413 27.4214 30.6606 27.469C30.68 27.5167 30.69 27.5678 30.69 27.6193V42.7ZM27.95 25.2121C27.4031 25.2121 26.8685 25.0467 26.4138 24.7368C25.9591 24.4269 25.6047 23.9865 25.3954 23.4711C25.1861 22.9558 25.1314 22.3887 25.2381 21.8416C25.3448 21.2945 25.6081 20.792 25.9948 20.3976C26.3815 20.0031 26.8742 19.7345 27.4105 19.6257C27.9469 19.5169 28.5028 19.5727 29.0081 19.7862C29.5133 19.9997 29.9451 20.3612 30.249 20.825C30.5528 21.2888 30.715 21.834 30.715 22.3918C30.7156 22.7624 30.6445 23.1294 30.5058 23.4719C30.3671 23.8144 30.1635 24.1256 29.9066 24.3876C29.6497 24.6496 29.3446 24.8573 29.0088 24.9988C28.6731 25.1403 28.3132 25.2128 27.95 25.2121ZM49.3099 42.7C49.3086 42.8033 49.2675 42.9019 49.1954 42.9744C49.1234 43.047 49.0262 43.0876 48.9249 43.0876H44.525C44.475 43.0876 44.4256 43.0776 44.3795 43.0581C44.3334 43.0386 44.2915 43.0101 44.2562 42.9741C44.221 42.9381 44.193 42.8954 44.1739 42.8484C44.1548 42.8013 44.145 42.7509 44.145 42.7V34.5961C44.145 32.4643 43.4 31.0261 41.53 31.0261C40.9472 31.0295 40.3798 31.2165 39.9054 31.5616C39.431 31.9067 39.0728 32.3931 38.8799 32.9539C38.7481 33.3685 38.6905 33.8038 38.7099 34.2391V42.7C38.7099 42.8042 38.6694 42.9041 38.5972 42.9777C38.525 43.0514 38.4271 43.0927 38.325 43.0927H33.9249C33.8746 43.0927 33.8248 43.0825 33.7784 43.0627C33.7319 43.0429 33.6898 43.0139 33.6545 42.9774C33.6191 42.9409 33.5912 42.8975 33.5724 42.8499C33.5536 42.8023 33.5443 42.7514 33.545 42.7C33.545 40.5478 33.6 30.0979 33.545 27.6397C33.5443 27.5884 33.5536 27.5375 33.5724 27.4898C33.5912 27.4422 33.6191 27.3989 33.6545 27.3624C33.6898 27.3258 33.7319 27.2968 33.7784 27.277C33.8248 27.2572 33.8746 27.247 33.9249 27.247H38.315C38.3657 27.2463 38.4161 27.256 38.4631 27.2755C38.5101 27.295 38.5528 27.3239 38.5887 27.3605C38.6246 27.3971 38.6529 27.4407 38.672 27.4886C38.6911 27.5366 38.7006 27.588 38.7 27.6397V29.491C39.1676 28.6629 39.8488 27.9813 40.6694 27.52C41.49 27.0588 42.4188 26.8356 43.3549 26.8747C46.75 26.8747 49.2999 29.1391 49.2999 34.0147L49.3099 42.7ZM38.7099 29.542V29.4859L38.6749 29.542H38.7099ZM38.6749 29.542H38.7099V29.4859L38.6749 29.542ZM38.6749 29.542H38.7099V29.4859L38.6749 29.542ZM38.6749 29.542H38.7099V29.4859L38.6749 29.542ZM38.6749 29.542H38.7099V29.4859L38.6749 29.542ZM38.6749 29.542H38.7099V29.4859L38.6749 29.542ZM38.6749 29.542H38.7099V29.4859L38.6749 29.542ZM38.6749 29.542H38.7099V29.4859L38.6749 29.542ZM38.6749 29.542H38.7099V29.4859L38.6749 29.542ZM38.6749 29.542H38.7099V29.4859L38.6749 29.542ZM38.6749 29.542H38.7099V29.4859L38.6749 29.542ZM38.6749 29.542H38.7099V29.4859L38.6749 29.542ZM38.6749 29.542H38.7099V29.4859L38.6749 29.542ZM38.6749 29.542H38.7099V29.4859L38.6749 29.542ZM38.6749 29.542H38.7099V29.4859L38.6749 29.542Z" fill="#0B49D1"/>
</g>
<defs>
<filter id="filter0_d_49789_3156" x="0.800246" y="0.5" width="70.8731" height="70.8731" filterUnits="userSpaceOnUse" color-interpolation-filters="sRGB">
<feFlood flood-opacity="0" result="BackgroundImageFix"/>
<feColorMatrix in="SourceAlpha" type="matrix" values="0 0 0 0 0 0 0 0 0 0 0 0 0 0 0 0 0 0 127 0" result="hardAlpha"/>
<feOffset dy="3.43657"/>
<feGaussianBlur stdDeviation="1.71828"/>
<feComposite in2="hardAlpha" operator="out"/>
<feColorMatrix type="matrix" values="0 0 0 0 0 0 0 0 0 0 0 0 0 0 0 0 0 0 0.2 0"/>
<feBlend mode="normal" in2="BackgroundImageFix" result="effect1_dropShadow_49789_3156"/>
<feBlend mode="normal" in="SourceGraphic" in2="effect1_dropShadow_49789_3156" result="shape"/>
</filter>
</defs>
</svg>
