<svg width="73" height="72" viewBox="0 0 73 72" fill="none" xmlns="http://www.w3.org/2000/svg">
<g filter="url(#filter0_d_49789_3194)">
<rect x="4.23682" width="64" height="64" rx="32" fill="white" shape-rendering="crispEdges"/>
<rect x="12.5415" y="8" width="48" height="48" rx="24" fill="#1877F2"/>
<path d="M48.6753 24.4891C47.7632 24.8848 46.7987 25.1464 45.8117 25.2657C46.853 24.6436 47.6333 23.665 48.0079 22.5113C47.0294 23.0938 45.9582 23.5042 44.841 23.7247C44.0942 22.9149 43.0998 22.3758 42.0136 22.192C40.9274 22.0083 39.811 22.1902 38.8394 22.7093C37.8678 23.2285 37.0959 24.0554 36.6449 25.0604C36.1939 26.0655 36.0893 27.1918 36.3474 28.2627C34.3689 28.1627 32.4335 27.6475 30.6671 26.7507C28.9007 25.8539 27.3427 24.5955 26.0943 23.0573C25.6564 23.822 25.4264 24.6879 25.427 25.569C25.4254 26.3873 25.6262 27.1933 26.0115 27.9152C26.3968 28.6371 26.9546 29.2525 27.6353 29.7067C26.8442 29.6851 26.0699 29.4728 25.3784 29.0878V29.1485C25.3843 30.295 25.7861 31.4043 26.5157 32.2887C27.2454 33.1731 28.2581 33.7783 29.3826 34.002C28.9497 34.1338 28.5003 34.2032 28.0479 34.2083C27.7347 34.2046 27.4223 34.1762 27.1135 34.1234C27.4338 35.1096 28.0535 35.9715 28.8864 36.5891C29.7193 37.2068 30.7241 37.5494 31.7608 37.5694C30.0101 38.9469 27.8487 39.6987 25.6211 39.7049C25.2155 39.7062 24.8102 39.6819 24.4077 39.6321C26.6821 41.1006 29.3326 41.8802 32.0399 41.8769C33.9081 41.8963 35.7615 41.5432 37.4917 40.8383C39.222 40.1334 40.7944 39.0908 42.1172 37.7714C43.44 36.452 44.4867 34.8822 45.196 33.1538C45.9053 31.4253 46.2631 29.5729 46.2485 27.7046C46.2485 27.4983 46.2485 27.2799 46.2485 27.0615C47.2007 26.3514 48.0219 25.481 48.6753 24.4891Z" fill="#FCFDFF"/>
</g>
<defs>
<filter id="filter0_d_49789_3194" x="0.236816" y="0" width="72" height="72" filterUnits="userSpaceOnUse" color-interpolation-filters="sRGB">
<feFlood flood-opacity="0" result="BackgroundImageFix"/>
<feColorMatrix in="SourceAlpha" type="matrix" values="0 0 0 0 0 0 0 0 0 0 0 0 0 0 0 0 0 0 127 0" result="hardAlpha"/>
<feOffset dy="4"/>
<feGaussianBlur stdDeviation="2"/>
<feComposite in2="hardAlpha" operator="out"/>
<feColorMatrix type="matrix" values="0 0 0 0 0 0 0 0 0 0 0 0 0 0 0 0 0 0 0.2 0"/>
<feBlend mode="normal" in2="BackgroundImageFix" result="effect1_dropShadow_49789_3194"/>
<feBlend mode="normal" in="SourceGraphic" in2="effect1_dropShadow_49789_3194" result="shape"/>
</filter>
</defs>
</svg>
